<svg xmlns="http://www.w3.org/2000/svg" xmlns:xlink="http://www.w3.org/1999/xlink" version="1.1" viewBox="0 0 2500 500" style="background: #ffffff"><defs><style>@import url(https://fonts.googleapis.com/css?family=Open+Sans:400,700);</style></defs><g transform="translate(25,100)"><rect width="450" height="300" rx="3" ry="3" x="0" y="0" fill="#ffffff" stroke-width="2" stroke="#d45b07"/><text x="225" y="61" text-anchor="middle" fill="#d45b07" font-size="30px" font-family="Open Sans"><tspan x="225" dy="40px">Container, Amazon Web</tspan><tspan x="225" dy="40px">Services - Elastic</tspan><tspan x="225" dy="40px">Container Service Service</tspan></text><image xlink:href="https://static.structurizr.com/themes/amazon-web-services-2023.01.31/Res_Amazon-Elastic-Container-Service_Service_48_Light.png" x="195" y="189" width="60" height="60" opacity="1"/></g><g transform="translate(525,55.5)"><polygon points="112.5,0 337.5,0 450,194.5 337.5,389 112.5,389 0,194.5" fill="#ffffff" stroke-width="2" stroke="#cd2264"/><text x="225" y="33.5" text-anchor="middle" fill="#cd2264" font-size="30px" font-family="Open Sans"><tspan x="225" dy="40px">Container, Amazon Web</tspan><tspan x="225" dy="40px">Services - Simple</tspan><tspan x="225" dy="40px">Notification Service Topic,</tspan><tspan x="225" dy="40px">Topic, Amazon Web</tspan><tspan x="225" dy="40px">Services - Simple</tspan><tspan x="225" dy="40px">Notification Service SNS</tspan><tspan x="225" dy="40px">Topic</tspan></text><image xlink:href="https://static.structurizr.com/themes/amazon-web-services-2020.04.30/Amazon-Simple-Notification-Service-SNS_Topic_light-bg@4x.png" x="195" y="305.5" width="60" height="60" opacity="1"/></g><g transform="translate(1025,100)"><path id="keyAmazonWebServices-SimpleQueueServiceSQSQueuePipePath" d="M 22.5,0 a 22.5,150 0,0,1 0 300 a 22.5,150 0,0,1 0 -300 l 405,0 a 22.5,150 0,0,1 0 300 l -405,0" fill="#ffffff" stroke-width="2" stroke="#cd2264"></path><text x="225" y="7" text-anchor="middle" fill="#cd2264" font-size="30px" font-family="Open Sans"><tspan x="225" dy="40px">Container, Queue,</tspan><tspan x="225" dy="40px">Amazon Web Services -</tspan><tspan x="225" dy="40px">Simple Queue Service</tspan><tspan x="225" dy="40px">Queue, Amazon Web</tspan><tspan x="225" dy="40px">Services - Simple Queue</tspan><tspan x="225" dy="40px">Service SQS Queue</tspan></text><image xlink:href="https://static.structurizr.com/themes/amazon-web-services-2020.04.30/Amazon-Simple-Queue-Service-SQS_Queue_light-bg@4x.png" x="195" y="243" width="60" height="60" opacity="1"/></g><g transform="translate(1525,170)"><path d="M390,0 L390,60 L450,30 L 390,0" style="fill:#707070" stroke-dasharray="" /><path d="M0,30 L390,30" style="stroke:#707070; stroke-width: 6; fill: none; stroke-dasharray: 30 30;" /><text x="225" y="77" text-anchor="middle" fill="#707070" font-size="30px" font-family="Open Sans"><tspan x="225" dy="40px">Relationship</tspan></text></g></svg>