<svg xmlns="http://www.w3.org/2000/svg" xmlns:xlink="http://www.w3.org/1999/xlink" version="1.1" viewBox="0 0 2390 900" style="background: #ffffff"><defs><style>@import url(https://fonts.googleapis.com/css?family=Open+Sans:400,700);</style></defs><defs joint-selector="defs"></defs><g joint-selector="layers"  transform="matrix(1,0,0,1,0,0)"><g ></g><g ><!--z-index:-5--><!--z-index:-4--><!--z-index:-3--><!--z-index:-2--><!--z-index:-1--><!--z-index:0--><!--z-index:1--><!--z-index:2--><!--z-index:3--><!--z-index:4--><!--z-index:5--><!--z-index:6--><!--z-index:7--><!--z-index:8--><!--z-index:9--><!--z-index:10--><g   id="j_25"  transform="translate(20,863.6)"><g id="v-237"><text  id="v-238" font-size="22px" xml:space="preserve" y="0.8em" font-weight="normal" text-anchor="start" fill="#aaaaaa" pointer-events="none" display="block" font-family="Open Sans"><tspan dy="0"  display="block">Friday, December 20, 2024 at 4:48 AM Coordinated Universal Time</tspan></text></g></g><!--z-index:11--><g   id="j_24"  transform="translate(20,820.4)"><g id="v-235"><text  id="v-236" font-size="36px" xml:space="preserve" y="0.8em" font-weight="normal" text-anchor="start" fill="#000000" pointer-events="none" display="block" font-family="Open Sans"><tspan dy="0"  display="block">[Container] Sistema de Notificações</tspan></text></g></g><!--z-index:12--><g   id="j_27"  transform="translate(199,165)" style=""><g id="v-249"><rect  id="v-250" width="1990" height="500" rx="0" ry="0" fill="#ffffff" stroke="#c7c7c7" stroke-width="1" stroke-dasharray="20,20" pointer-events="none"></rect><text  id="v-251" font-size="24px" xml:space="preserve" y="461" font-weight="normal" fill="#c7c7c7" text-anchor="start" pointer-events="visible" font-family="Open Sans" transform="matrix(1,0,0,1,15,0)"><tspan dy="0" >Sistema de Notificações</tspan></text><text  id="v-252" font-size="17px" xml:space="preserve" y="485" font-weight="normal" fill="#c7c7c7" text-anchor="start" pointer-events="visible" font-family="Open Sans" transform="matrix(1,0,0,1,15,0)"><tspan dy="0" >[Software System]</tspan></text><image  id="v-253" pointer-events="visible"></image></g></g><!--z-index:13--><g   id="j_26"  transform="translate(969,185)" style=""><g  id="v-242" style="opacity: 1;"><polygon  id="v-243" stroke="#cd2264" stroke-width="2" pointer-events="visiblePainted" fill="#ffffff" points="112.5,0 337.5,0 450,194.5 337.5,389 112.5,389 0,194.5" style="fill: rgb(255, 255, 255); stroke: rgb(205, 34, 100);"></polygon><text  id="v-244" font-size="34" xml:space="preserve" y="0.8em" font-weight="bold" text-anchor="middle" pointer-events="visible" font-family="Open Sans" fill="#cd2264" transform="matrix(1,0,0,1,225,95.1)" style="fill: rgb(205, 34, 100);"><tspan dy="0" >MESSAGE-TOPIC</tspan></text><text  id="v-245" font-size="17" xml:space="preserve" y="0.8em" text-anchor="middle" font-family="Open Sans" fill="#cd2264" transform="matrix(1,0,0,1,225,135.9)" style="fill: rgb(205, 34, 100);"><tspan dy="0" >[Container: SNS Topic]</tspan></text><text  id="v-246" font-size="24" xml:space="preserve" y="0.8em" text-anchor="middle" font-family="Open Sans" fill="#cd2264" transform="matrix(1,0,0,1,225,166.3)" style="fill: rgb(205, 34, 100);"><tspan dy="0" >Tópico SNS usado para distribuir</tspan><tspan dy="1.2em" x="0" >mensagens.</tspan></text><g  id="v-247" font-weight="normal" text-anchor="middle" color="#cd2264" transform="matrix(1,0,0,1,222.1,357)" display="none" style="fill: rgb(205, 34, 100);"><g ></g><g ></g><g ></g><g ></g></g><image  id="v-248" xlink:href="https://static.structurizr.com/themes/amazon-web-services-2020.04.30/Amazon-Simple-Notification-Service-SNS_Topic_light-bg@4x.png" width="60" height="60" opacity="1" transform="matrix(1,0,0,1,190.3,233.9)"></image></g></g><!--z-index:14--><g   id="j_28"  transform="translate(1719,185)" style=""><g  id="v-257" style="opacity: 1;"><path  d="M 30,0 a 30,150 0,0,1 0 300 a 30,150 0,0,1 0 -300 l 390,0 a 30,150 0,0,1 0 300 l -390,0" id="v-258" stroke="#cd2264" stroke-width="2" pointer-events="visiblePainted" fill="#ffffff" style="fill: rgb(255, 255, 255); stroke: rgb(205, 34, 100);"></path><rect  id="v-259" stroke-width="0" pointer-events="visiblePainted" fill="none" stroke="none" width="420" height="300" x="30" y="0"></rect><text  id="v-260" font-size="34" xml:space="preserve" y="0.8em" font-weight="bold" text-anchor="middle" pointer-events="visible" font-family="Open Sans" fill="#cd2264" transform="matrix(1,0,0,1,240,50.6)" style="fill: rgb(205, 34, 100);"><tspan dy="0" >MESSAGE-QUEUE</tspan></text><text  id="v-261" font-size="17" xml:space="preserve" y="0.8em" text-anchor="middle" font-family="Open Sans" fill="#cd2264" transform="matrix(1,0,0,1,240,91.4)" style="fill: rgb(205, 34, 100);"><tspan dy="0" >[Container: AWS SQS]</tspan></text><text  id="v-262" font-size="24" xml:space="preserve" y="0.8em" text-anchor="middle" font-family="Open Sans" fill="#cd2264" transform="matrix(1,0,0,1,240,121.8)" style="fill: rgb(205, 34, 100);"><tspan dy="0" >Fila que recebe mensagens filtradas</tspan><tspan dy="1.2em" x="0" >do tópico SNS.</tspan></text><g  id="v-263" font-weight="normal" text-anchor="middle" color="#cd2264" transform="matrix(1,0,0,1,237.5,268)" display="none" style="fill: rgb(205, 34, 100);"><g ></g><g ></g><g ></g><g ></g></g><image  id="v-264" xlink:href="https://static.structurizr.com/themes/amazon-web-services-2020.04.30/Amazon-Simple-Queue-Service-SQS_Queue_light-bg@4x.png" width="60" height="60" opacity="1" transform="matrix(1,0,0,1,210,189.4)"></image></g></g><!--z-index:15--><g   id="j_29"  transform="translate(219,185)" style=""><g  id="v-268" style="opacity: 1;"><rect  id="v-269" rx="1" ry="1" stroke="#d45b07" stroke-width="2" pointer-events="visiblePainted" fill="#ffffff" width="450" height="300" style="fill: rgb(255, 255, 255); stroke: rgb(212, 91, 7);"></rect><text  id="v-270" font-size="34" xml:space="preserve" y="0.8em" font-weight="bold" text-anchor="middle" pointer-events="visible" font-family="Open Sans" fill="#d45b07" transform="matrix(1,0,0,1,225,50.6)" style="fill: rgb(212, 91, 7);"><tspan dy="0" >SERVER</tspan></text><text  id="v-271" font-size="17" xml:space="preserve" y="0.8em" text-anchor="middle" font-family="Open Sans" fill="#d45b07" transform="matrix(1,0,0,1,225,91.4)" style="fill: rgb(212, 91, 7);"><tspan dy="0" >[Container: .NET 8]</tspan></text><text  id="v-272" font-size="24" xml:space="preserve" y="0.8em" text-anchor="middle" font-family="Open Sans" fill="#d45b07" transform="matrix(1,0,0,1,225,121.8)" style="fill: rgb(212, 91, 7);"><tspan dy="0" >Servidor que encaminha</tspan><tspan dy="1.2em" x="0" >mensagens</tspan></text><g  id="v-273" color="#d45b07" transform="matrix(1,0,0,1,222.5,268)" display="none" style="fill: rgb(212, 91, 7);"><g ></g><g ></g><g ></g><g ></g></g><image  id="v-274" xlink:href="https://static.structurizr.com/themes/amazon-web-services-2023.01.31/Res_Amazon-Elastic-Container-Service_Service_48_Light.png" width="60" height="60" opacity="1" transform="matrix(1,0,0,1,195,189.4)"></image></g></g><!--z-index:16--><g   id="j_30" ><path  stroke="#707070" d="M 669 348 L 969 366" id="v-287" stroke-width="2" stroke-dasharray="30 30" fill="none" style="opacity: 1;"></path><path  fill="black" stroke="black" d="M 0 0 0 0" transform="matrix(0.9982444118329556,0.059229167175273906,-0.059229167175273906,0.9982444118329556,669,348.3500061035156)"></path><path  fill="#707070" stroke="#707070" d="M 20 0 L 0 10 L 20 20 z" id="v-289" transform="matrix(-0.9982444115864918,-0.05922917132915753,0.05922917132915753,-0.9982444115864918,968.4077305275733,376.1324445693909)" style="opacity: 1;"></path><path  d="M 669 348 L 969 366" id="v-288" fill="none" style="cursor: auto; pointer-events: visiblepainted;"></path><g ><g id="v-281"  label-idx="0" cursor="move" transform="matrix(1,0,0,1,819,357)" style="cursor: default; opacity: 1;"><rect joint-selector="rect" id="v-284" fill="#ffffff" rx="3" ry="3" pointer-events="none" width="163.123779296875" height="89.86624145507812" transform="matrix(1,0,0,1,-81.6,-44.9)"></rect><text joint-selector="text" id="v-283" font-size="24px" xml:space="preserve" y="0.8em" fill="#707070" text-anchor="middle" pointer-events="none" font-family="Open Sans" font-weight="normal" transform="matrix(1,0,0,1,0,-39)"><tspan dy="0" >Publica</tspan><tspan dy="1.2em" x="0" >mensagens no</tspan><tspan dy="1.2em" x="0" >tópico</tspan></text></g><g id="v-282"  label-idx="1" cursor="move" transform="matrix(1,0,0,1,809,412.20001220703125)" style="cursor: default; opacity: 1;"><rect joint-selector="rect" id="v-286" fill="#ffffff" rx="3" ry="3"  width="0" height="0" transform="matrix(1,0,0,1,0,0)" display="none"></rect><text joint-selector="text" id="v-285" fill="#000000" font-size="14" text-anchor="middle" pointer-events="none"></text></g></g><g  display="none" style="display: none;"></g><g  id="v-291" display="none"><g  id="v-279"><path  end="source" d="M 26 0 L 0 13 L 26 26 z"></path></g><g  id="v-280"><path  end="target" d="M 26 0 L 0 13 L 26 26 z"></path></g></g><g  id="v-290" display="none"><g  id="v-278" transform="translate(708.9281938186311, 350.3956916291179) "><g  event="remove"><circle r="11"></circle><path transform="scale(.8) translate(-16, -16)" d="M24.778,21.419 19.276,15.917 24.777,10.415 21.949,7.585 16.447,13.087 10.945,7.585 8.117,10.415 13.618,15.917 8.116,21.419 10.946,24.248 16.447,18.746 21.948,24.248z"></path><title>Remove link.</title></g><g  event="link:options"><circle r="11" transform="translate(25)"></circle><path fill="white" transform="scale(.55) translate(29, -16)" d="M31.229,17.736c0.064-0.571,0.104-1.148,0.104-1.736s-0.04-1.166-0.104-1.737l-4.377-1.557c-0.218-0.716-0.504-1.401-0.851-2.05l1.993-4.192c-0.725-0.91-1.549-1.734-2.458-2.459l-4.193,1.994c-0.647-0.347-1.334-0.632-2.049-0.849l-1.558-4.378C17.165,0.708,16.588,0.667,16,0.667s-1.166,0.041-1.737,0.105L12.707,5.15c-0.716,0.217-1.401,0.502-2.05,0.849L6.464,4.005C5.554,4.73,4.73,5.554,4.005,6.464l1.994,4.192c-0.347,0.648-0.632,1.334-0.849,2.05l-4.378,1.557C0.708,14.834,0.667,15.412,0.667,16s0.041,1.165,0.105,1.736l4.378,1.558c0.217,0.715,0.502,1.401,0.849,2.049l-1.994,4.193c0.725,0.909,1.549,1.733,2.459,2.458l4.192-1.993c0.648,0.347,1.334,0.633,2.05,0.851l1.557,4.377c0.571,0.064,1.148,0.104,1.737,0.104c0.588,0,1.165-0.04,1.736-0.104l1.558-4.377c0.715-0.218,1.399-0.504,2.049-0.851l4.193,1.993c0.909-0.725,1.733-1.549,2.458-2.458l-1.993-4.193c0.347-0.647,0.633-1.334,0.851-2.049L31.229,17.736zM16,20.871c-2.69,0-4.872-2.182-4.872-4.871c0-2.69,2.182-4.872,4.872-4.872c2.689,0,4.871,2.182,4.871,4.872C20.871,18.689,18.689,20.871,16,20.871z"></path><title>Link options.</title></g></g></g></g><!--z-index:17--><g   id="j_31" ><path  stroke="#707070" d="M 1419 366 L 1719 348" id="v-304" stroke-width="2" stroke-dasharray="30 30" fill="none" style="opacity: 1;"></path><path  fill="black" stroke="black" d="M 0 0 0 0" transform="matrix(0.9982444115864918,-0.059229171329157455,0.059229171329157455,0.9982444115864918,1419,366.1499938964844)"></path><path  fill="#707070" stroke="#707070" d="M 20 0 L 0 10 L 20 20 z" id="v-306" transform="matrix(-0.9982444115864918,0.059229171329157775,-0.059229171329157775,-0.9982444115864918,1719.5923139541565,358.33244366233896)" style="opacity: 1;"></path><path  d="M 1419 366 L 1719 348" id="v-305" fill="none" style="cursor: auto; pointer-events: visiblepainted;"></path><g ><g id="v-298"  label-idx="0" cursor="move" transform="matrix(1,0,0,1,1569,357)" style="cursor: default; opacity: 1;"><rect joint-selector="rect" id="v-301" fill="#ffffff" rx="3" ry="3" pointer-events="none" width="193.37338256835938" height="61.066246032714844" transform="matrix(1,0,0,1,-96.7,-30.5)"></rect><text joint-selector="text" id="v-300" font-size="24px" xml:space="preserve" y="0.8em" fill="#707070" text-anchor="middle" pointer-events="none" font-family="Open Sans" font-weight="normal" transform="matrix(1,0,0,1,0,-24.6)"><tspan dy="0" >Envia mensagens</tspan><tspan dy="1.2em" x="0" >filtradas para</tspan></text></g><g id="v-299"  label-idx="1" cursor="move" transform="matrix(1,0,0,1,1559,397.79998779296875)" style="cursor: default; opacity: 1;"><rect joint-selector="rect" id="v-303" fill="#ffffff" rx="3" ry="3"  width="0" height="0" transform="matrix(1,0,0,1,0,0)" display="none"></rect><text joint-selector="text" id="v-302" fill="#000000" font-size="14" text-anchor="middle" pointer-events="none"></text></g></g><g  display="none" style="display: none;"></g><g  id="v-308" display="none"><g  id="v-296"><path  end="source" d="M 26 0 L 0 13 L 26 26 z"></path></g><g  id="v-297"><path  end="target" d="M 26 0 L 0 13 L 26 26 z"></path></g></g><g  id="v-307" display="none"><g  id="v-295" transform="translate(1458.9281938186311, 363.60430837088217) "><g  event="remove"><circle r="11"></circle><path transform="scale(.8) translate(-16, -16)" d="M24.778,21.419 19.276,15.917 24.777,10.415 21.949,7.585 16.447,13.087 10.945,7.585 8.117,10.415 13.618,15.917 8.116,21.419 10.946,24.248 16.447,18.746 21.948,24.248z"></path><title>Remove link.</title></g><g  event="link:options"><circle r="11" transform="translate(25)"></circle><path fill="white" transform="scale(.55) translate(29, -16)" d="M31.229,17.736c0.064-0.571,0.104-1.148,0.104-1.736s-0.04-1.166-0.104-1.737l-4.377-1.557c-0.218-0.716-0.504-1.401-0.851-2.05l1.993-4.192c-0.725-0.91-1.549-1.734-2.458-2.459l-4.193,1.994c-0.647-0.347-1.334-0.632-2.049-0.849l-1.558-4.378C17.165,0.708,16.588,0.667,16,0.667s-1.166,0.041-1.737,0.105L12.707,5.15c-0.716,0.217-1.401,0.502-2.05,0.849L6.464,4.005C5.554,4.73,4.73,5.554,4.005,6.464l1.994,4.192c-0.347,0.648-0.632,1.334-0.849,2.05l-4.378,1.557C0.708,14.834,0.667,15.412,0.667,16s0.041,1.165,0.105,1.736l4.378,1.558c0.217,0.715,0.502,1.401,0.849,2.049l-1.994,4.193c0.725,0.909,1.549,1.733,2.459,2.458l4.192-1.993c0.648,0.347,1.334,0.633,2.05,0.851l1.557,4.377c0.571,0.064,1.148,0.104,1.737,0.104c0.588,0,1.165-0.04,1.736-0.104l1.558-4.377c0.715-0.218,1.399-0.504,2.049-0.851l4.193,1.993c0.909-0.725,1.733-1.549,2.458-2.458l-1.993-4.193c0.347-0.647,0.633-1.334,0.851-2.049L31.229,17.736zM16,20.871c-2.69,0-4.872-2.182-4.872-4.871c0-2.69,2.182-4.872,4.872-4.872c2.689,0,4.871,2.182,4.871,4.872C20.871,18.689,18.689,20.871,16,20.871z"></path><title>Link options.</title></g></g></g></g><!--z-index:18--><!--z-index:19--><!--z-index:20--><!--z-index:21--><!--z-index:22--><!--z-index:23--><!--z-index:24--></g><g ></g><g ></g><g ></g></g></svg>